<?xml version="1.0" standalone="no"?><!DOCTYPE svg PUBLIC "-//W3C//DTD SVG 1.1//EN" "http://www.w3.org/Graphics/SVG/1.1/DTD/svg11.dtd"><svg t="1614175412369" class="icon" viewBox="0 0 1024 1024" version="1.1" xmlns="http://www.w3.org/2000/svg" p-id="41180" xmlns:xlink="http://www.w3.org/1999/xlink" width="200" height="200"><defs><style type="text/css"></style></defs><path d="M560.553 706.058c-67.016 0-134.031 0.092-201.047-0.02-72.387-0.118-112.896-34.796-127.155-106.01-29.292-146.314-59.556-292.429-89.052-438.707-2.269-11.244-6.124-16.266-18.504-15.575-19.615 1.096-39.347 0.62-59.013 0.138-19.328-0.466-31.417-12.267-30.971-29.163 0.415-15.765 12.984-27.874 30.73-28.125 31.37-0.435 62.761-0.435 94.136-0.015 19.226 0.256 28.713 8.443 33.183 27.991 6.037 26.389 12.278 52.777 16.968 79.416 2.611 14.823 7.905 20.414 24.315 20.327 146.258-0.783 292.52-0.466 438.784-0.456 80.845 0.005 161.684-0.281 242.524 0.19 42.306 0.245 74.931 27.31 81.116 68.864 2.089 14.044-0.102 30.044-4.838 43.57-34.96 99.774-70.713 199.276-106.952 298.6-19.16 52.49-58.511 78.637-116.797 78.893-69.141 0.318-138.281 0.077-207.427 0.082z m-332.82-432.645c0.645 5.909 0.788 10.168 1.607 14.295 20.588 103.086 41.052 206.198 61.993 309.217 7.189 35.39 26.455 50.607 62.444 50.627 138.255 0.087 276.515 0.072 414.77 0.01 35.206-0.015 51.252-11.397 63.197-44.6a464513.947 464513.947 0 0 0 102.917-286.438c10.931-30.475 2.028-43.096-30.32-43.1-219.618-0.021-439.235-0.01-658.852-0.01h-17.757zM842.286 842.189c-0.133 54.22-44.011 97.848-98.59 98.038-55.143 0.189-99.626-43.95-99.528-98.765 0.092-53.765 44.518-97.987 98.693-98.222 54.902-0.241 99.563 44.21 99.425 98.949z m-99.512-40.607c-22.451 0.251-40.781 18.422-40.689 40.346 0.092 21.621 18.929 40.315 40.832 40.524 22.4 0.205 41.979-19.363 41.487-41.472-0.491-21.934-19.21-39.649-41.63-39.398zM231.357 839.747c1.332-54.288 46.1-97.311 100.393-96.477 54.784 0.84 99.308 46.47 98.182 100.608-1.132 54.129-47.412 97.7-102.334 96.338-54.164-1.336-97.562-46.643-96.24-100.47z m58.25 2.626c0.257 21.878 19.365 40.412 41.334 40.09 22.482-0.328 40.464-18.699 40.239-41.093-0.23-22.477-18.453-40.06-41.242-39.788-22.661 0.277-40.586 18.406-40.33 40.791z" fill="#FF4D4A" p-id="41181"></path></svg>